Coordinates
version=1
nRows=17
nColumns=38
inDegrees=no

Units are S.I. units (second, meters, Newtons, ...)
If the header above contains a line with 'inDegrees', this indicates whether rotational values are in degrees (yes) or radians (no).

endheader
time	pelvis_tilt	pelvis_list	pelvis_rotation	pelvis_tx	pelvis_ty	pelvis_tz	hip_flexion_r	hip_adduction_r	hip_rotation_r	knee_angle_r	ankle_angle_r	subtalar_angle_r	mtp_angle_r	hip_flexion_l	hip_adduction_l	hip_rotation_l	knee_angle_l	ankle_angle_l	subtalar_angle_l	mtp_angle_l	lumbar_extension	lumbar_bending	lumbar_rotation	arm_flex_r	arm_add_r	arm_rot_r	elbow_flex_r	pro_sup_r	wrist_flex_r	wrist_dev_r	arm_flex_l	arm_add_l	arm_rot_l	elbow_flex_l	pro_sup_l	wrist_flex_l	wrist_dev_l
0.56	2.91569	1.10372	1.68104	0.639009	0.842342	1.01035	0.542674	-0.160926	-0.00587046	1.06146	-0.479309	0	0	0.65318	0.0551593	-0.172727	0.246356	-0.199845	0	0	0.446727	-0.0690353	0.109724	-0.145699	-0.30503	0.354013	0.465565	1.08826	0	0	-0.287045	-0.0846424	-0.698959	0.366873	1.25388	0	0
0.57	2.92044	1.10726	1.68118	0.639338	0.830646	1.0121	0.559742	-0.164572	-0.00851187	1.08236	-0.435914	0	0	0.637584	0.0567124	-0.170507	0.246726	-0.195658	0	0	0.444989	-0.0676343	0.101369	-0.147685	-0.302694	0.366072	0.459492	1.07544	0	0	-0.286246	-0.0848373	-0.701285	0.359424	1.25069	0	0
0.58	2.92843	1.11064	1.6786	0.639682	0.818968	1.01383	0.576312	-0.166917	-0.0125206	1.09739	-0.400851	0	0	0.621853	0.0571125	-0.167929	0.246803	-0.191593	0	0	0.443626	-0.0648187	0.0932762	-0.151962	-0.301052	0.373852	0.456739	1.06307	0	0	-0.285557	-0.084793	-0.703692	0.352613	1.24794	0	0
0.59	2.93731	1.11434	1.67436	0.63993	0.807441	1.01562	0.592166	-0.168135	-0.0161181	1.10668	-0.369258	0	0	0.605761	0.0565971	-0.166297	0.246789	-0.187375	0	0	0.441497	-0.0611582	0.0862107	-0.156644	-0.300018	0.380044	0.45589	1.04912	0	0	-0.284308	-0.0846154	-0.706412	0.345747	1.24563	0	0
0.6	2.94656	1.11807	1.66859	0.640067	0.796098	1.01743	0.607694	-0.168108	-0.0186985	1.11056	-0.341905	0	0	0.589425	0.0550967	-0.165881	0.245802	-0.183701	0	0	0.438941	-0.0567189	0.0805095	-0.161504	-0.299405	0.384257	0.456507	1.03389	0	0	-0.282749	-0.0842346	-0.709024	0.339027	1.24412	0	0
0.61	2.95669	1.12136	1.66082	0.640098	0.78494	1.01921	0.623372	-0.166631	-0.0206393	1.10944	-0.319846	0	0	0.573058	0.0525009	-0.165975	0.242973	-0.18126	0	0	0.436636	-0.0514362	0.0759949	-0.166444	-0.298686	0.385262	0.457807	1.02053	0	0	-0.281534	-0.0834502	-0.711002	0.333442	1.24294	0	0
0.62	2.96848	1.12401	1.65093	0.640036	0.77393	1.02086	0.63909	-0.163642	-0.0226327	1.10416	-0.293618	0	0	0.556896	0.0487689	-0.165508	0.238657	-0.179024	0	0	0.435017	-0.0453636	0.0723076	-0.171959	-0.299006	0.386312	0.461099	1.00385	0	0	-0.280422	-0.0824703	-0.713022	0.328565	1.24202	0	0
0.63	2.98057	1.12524	1.64005	0.639822	0.763071	1.02238	0.655712	-0.159621	-0.0241859	1.09496	-0.269748	0	0	0.541773	0.0445555	-0.166426	0.233036	-0.177751	0	0	0.43501	-0.0393225	0.0693269	-0.17721	-0.299212	0.386922	0.464099	0.988327	0	0	-0.280329	-0.0813594	-0.714953	0.325445	1.24135	0	0
0.64	2.9924	1.12525	1.62912	0.639517	0.752371	1.02377	0.672848	-0.155107	-0.0255429	1.0819	-0.247251	0	0	0.5274	0.0403046	-0.16902	0.22594	-0.177699	0	0	0.436229	-0.0335677	0.0665149	-0.181872	-0.299343	0.387364	0.466624	0.974301	0	0	-0.280789	-0.0802231	-0.716676	0.3232	1.24124	0	0
0.65	3.00408	1.12458	1.61891	0.639189	0.741777	1.02505	0.689573	-0.15054	-0.0272468	1.06513	-0.225624	0	0	0.513306	0.0364269	-0.1718	0.217725	-0.17904	0	0	0.438007	-0.0284098	0.0631596	-0.18578	-0.29939	0.387864	0.468484	0.962138	0	0	-0.281646	-0.0791236	-0.718051	0.321877	1.24197	0	0
0.66	3.01546	1.1234	1.60968	0.638809	0.731264	1.02621	0.705506	-0.145939	-0.0290033	1.04421	-0.204828	0	0	0.499589	0.0329693	-0.173894	0.209124	-0.181028	0	0	0.440282	-0.0239453	0.0595634	-0.189047	-0.299016	0.388289	0.469166	0.951989	0	0	-0.282733	-0.0782774	-0.718928	0.321573	1.24343	0	0
0.67	3.02638	1.12123	1.6016	0.638375	0.720836	1.0272	0.72118	-0.141399	-0.0307336	1.01919	-0.185237	0	0	0.486923	0.029947	-0.176157	0.200706	-0.183252	0	0	0.443563	-0.0203015	0.0558253	-0.192078	-0.298285	0.388011	0.469226	0.943908	0	0	-0.283967	-0.0777548	-0.719429	0.322091	1.24528	0	0
0.68	3.03695	1.11814	1.59473	0.637925	0.710489	1.02801	0.736335	-0.137147	-0.0330347	0.989883	-0.167799	0	0	0.474814	0.0274051	-0.179258	0.190939	-0.18619	0	0	0.447645	-0.0173637	0.0517469	-0.195019	-0.297463	0.387211	0.469067	0.938551	0	0	-0.285144	-0.0774896	-0.719673	0.32325	1.24722	0	0
0.69	3.0475	1.11477	1.58839	0.637403	0.700184	1.02869	0.750159	-0.132596	-0.0356699	0.956034	-0.152853	0	0	0.463445	0.0248356	-0.182059	0.181961	-0.189322	0	0	0.451877	-0.0147528	0.0475475	-0.19768	-0.296449	0.385859	0.468385	0.935809	0	0	-0.285933	-0.077527	-0.719661	0.324665	1.24902	0	0
0.7	3.05732	1.11082	1.58318	0.636856	0.689927	1.02921	0.763009	-0.128025	-0.037862	0.917474	-0.141367	0	0	0.452753	0.022553	-0.184469	0.173092	-0.192579	0	0	0.456598	-0.0126338	0.0433444	-0.200116	-0.295299	0.383873	0.46728	0.935585	0	0	-0.286399	-0.077709	-0.719294	0.326261	1.25052	0	0
0.71	3.06657	1.10644	1.57879	0.636276	0.679699	1.02956	0.774535	-0.123424	-0.0396344	0.873982	-0.133269	0	0	0.442234	0.0206007	-0.185777	0.163638	-0.196119	0	0	0.461563	-0.0108149	0.0391903	-0.202414	-0.294182	0.381438	0.466098	0.937876	0	0	-0.286622	-0.0779427	-0.718843	0.328278	1.25152	0	0
0.72	3.07503	1.10202	1.57542	0.635702	0.669523	1.02973	0.784297	-0.119007	-0.0410331	0.825508	-0.128357	0	0	0.431062	0.0191315	-0.18578	0.152699	-0.20032	0	0	0.466054	-0.00925787	0.0349209	-0.204306	-0.293292	0.378801	0.465033	0.942847	0	0	-0.286458	-0.0780717	-0.718104	0.330676	1.25201	0	0
